<?xml version="1.0" encoding="UTF-8"?>
<svg xmlns="http://www.w3.org/2000/svg" width="15.606" height="15.606" viewBox="0 0 15.606 15.606">
  <path id="Icon_awesome-linkedin" data-name="Icon awesome-linkedin" d="M14.492,2.25H1.111A1.12,1.12,0,0,0,0,3.375V16.731a1.12,1.12,0,0,0,1.111,1.125h13.38a1.123,1.123,0,0,0,1.115-1.125V3.375A1.123,1.123,0,0,0,14.492,2.25ZM4.717,15.627H2.4V8.179H4.72v7.448ZM3.56,7.162A1.341,1.341,0,1,1,4.9,5.821,1.342,1.342,0,0,1,3.56,7.162Zm9.827,8.465H11.074V12c0-.864-.017-1.975-1.2-1.975-1.205,0-1.39.941-1.39,1.912v3.686H6.169V8.179H8.388V9.2H8.42a2.436,2.436,0,0,1,2.191-1.2c2.341,0,2.776,1.543,2.776,3.55Z" transform="translate(0 -2.25)" fill="#3b3a3a"></path>
</svg>
