<svg id="Icon_ionic-ios-mail" data-name="Icon ionic-ios-mail" xmlns="http://www.w3.org/2000/svg" width="21.771" height="15.072" viewBox="0 0 21.771 15.072">
  <path id="Path_14" data-name="Path 14" d="M24.968,10.346l-5.631,5.736a.1.1,0,0,0,0,.147l3.941,4.2a.679.679,0,0,1,0,.963.682.682,0,0,1-.963,0L18.39,17.207a.107.107,0,0,0-.152,0l-.958.973a4.214,4.214,0,0,1-3,1.266,4.3,4.3,0,0,1-3.067-1.3l-.921-.937a.107.107,0,0,0-.152,0L6.212,21.388a.682.682,0,0,1-.963,0,.679.679,0,0,1,0-.963l3.941-4.2a.111.111,0,0,0,0-.147L3.553,10.346a.1.1,0,0,0-.178.073V21.9A1.68,1.68,0,0,0,5.05,23.571H23.471A1.68,1.68,0,0,0,25.146,21.9V10.419A.1.1,0,0,0,24.968,10.346Z" transform="translate(-3.375 -8.499)" fill="#fff"/>
  <path id="Path_15" data-name="Path 15" d="M14.478,17.457a2.845,2.845,0,0,0,2.046-.858l8.211-8.358A1.645,1.645,0,0,0,23.7,7.875H5.262a1.634,1.634,0,0,0-1.036.366L12.437,16.6A2.846,2.846,0,0,0,14.478,17.457Z" transform="translate(-3.593 -7.875)" fill="#fff"/>
</svg>
