<svg xmlns="http://www.w3.org/2000/svg" width="1020.64" height="274.844" viewBox="0 0 1020.64 274.844"><g transform="translate(5 -30.8)"><g transform="translate(61.553 241.473)"><g transform="translate(0 0.163)"><path d="M147.243,446a28.743,28.743,0,1,0,28.743,28.743A28.723,28.723,0,0,0,147.243,446Zm0,42.3A13.558,13.558,0,1,1,160.8,474.743,13.563,13.563,0,0,1,147.243,488.3Z" transform="translate(-118.5 -446)" fill="#293241"/></g><g transform="translate(169.204 0.163)"><path d="M459.243,446a28.743,28.743,0,1,0,28.743,28.743A28.723,28.723,0,0,0,459.243,446Zm0,42.3A13.558,13.558,0,1,1,472.8,474.743,13.563,13.563,0,0,1,459.243,488.3Z" transform="translate(-430.5 -446)" fill="#293241"/></g><g transform="translate(234.77)"><path d="M580.143,445.7a28.743,28.743,0,1,0,28.743,28.743A28.723,28.723,0,0,0,580.143,445.7Zm0,42.3A13.558,13.558,0,1,1,593.7,474.443,13.563,13.563,0,0,1,580.143,488Z" transform="translate(-551.4 -445.7)" fill="#293241"/></g><g transform="translate(503.76)"><path d="M1076.143,445.7a28.743,28.743,0,1,0,28.743,28.743A28.723,28.723,0,0,0,1076.143,445.7Zm0,42.3a13.558,13.558,0,1,1,13.558-13.558A13.563,13.563,0,0,1,1076.143,488Z" transform="translate(-1047.4 -445.7)" fill="#293241"/></g><g transform="translate(568.838)"><path d="M1196.143,445.7a28.743,28.743,0,1,0,28.743,28.743A28.723,28.723,0,0,0,1196.143,445.7Zm0,42.3a13.558,13.558,0,1,1,13.558-13.558A13.563,13.563,0,0,1,1196.143,488Z" transform="translate(-1167.4 -445.7)" fill="#293241"/></g><g transform="translate(633.917)"><path d="M1316.143,445.7a28.743,28.743,0,1,0,28.743,28.743A28.723,28.723,0,0,0,1316.143,445.7Zm0,42.3a13.558,13.558,0,1,1,13.558-13.558A13.563,13.563,0,0,1,1316.143,488Z" transform="translate(-1287.4 -445.7)" fill="#293241"/></g></g><g transform="translate(138.563 233.501)"><path d="M970.168,446H865.5a36.433,36.433,0,0,1,14.046,26.574h76.63A36.194,36.194,0,0,1,970.168,446Z" transform="translate(-537.397 -437.865)" fill="#3d5a80" stroke="#293241" stroke-linecap="round" stroke-linejoin="round" stroke-miterlimit="10" stroke-width="10"/><path d="M522.5,431v7.321a37.029,37.029,0,0,1,10.792,12.2h1.735a37.023,37.023,0,0,1,10.25-11.823V431Z" transform="translate(-380.412 -431)" fill="none" stroke="#293241" stroke-linecap="round" stroke-linejoin="round" stroke-miterlimit="10" stroke-width="10"/><g transform="translate(542.807 8.135)"><path d="M1282.6,446h-21.2a36.1,36.1,0,0,1,10.575,13.124A37.4,37.4,0,0,1,1282.6,446Z" transform="translate(-1261.4 -446)" fill="#3d5a80" stroke="#293241" stroke-linecap="round" stroke-linejoin="round" stroke-miterlimit="10" stroke-width="10"/><path d="M1382.5,446a36.433,36.433,0,0,1,14.046,26.574h23.048l19.307-11.389h15.185V446Z" transform="translate(-1316.825 -446)" fill="#3d5a80" stroke="#293241" stroke-linecap="round" stroke-linejoin="round" stroke-miterlimit="10" stroke-width="10"/></g><path d="M1161.6,446h-21.2a36.1,36.1,0,0,1,10.575,13.124A37.4,37.4,0,0,1,1161.6,446Z" transform="translate(-663.214 -437.865)" fill="#3d5a80" stroke="#293241" stroke-linecap="round" stroke-linejoin="round" stroke-miterlimit="10" stroke-width="10"/><rect width="22.777" height="34.166" transform="translate(0 15.727)" fill="#3d5a80" stroke="#293241" stroke-linecap="round" stroke-linejoin="round" stroke-miterlimit="10" stroke-width="10"/><rect width="22.777" height="34.166" transform="translate(30.912 15.727)" fill="#3d5a80" stroke="#293241" stroke-linecap="round" stroke-linejoin="round" stroke-miterlimit="10" stroke-width="10"/><rect width="22.777" height="34.166" transform="translate(61.824 15.727)" fill="#3d5a80" stroke="#293241" stroke-linecap="round" stroke-linejoin="round" stroke-miterlimit="10" stroke-width="10"/></g><path d="M143.291,190.5H35.912c-15.185,0-23.32,42.3-23.32,42.3H28.32l-7.592,53.69L5,290.287V325H16.389v18.981L5,347.772v8.135s3.254,15.185,11.389,15.185H64.98a33.081,33.081,0,1,1,60.631,0h2.495c7.592,0,7.592-7.592,7.592-7.592V328.791s-.542-7.592,15.185-7.592V198.092C150.884,190.5,143.291,190.5,143.291,190.5ZM82.009,275.1l-46.1,7.592s0-49.893,7.592-49.893h38.5Zm49.893-7.592H104.787V232.8H131.9Z" transform="translate(-5 -87.427)" fill="#98c1d9" stroke="#293241" stroke-linecap="round" stroke-linejoin="round" stroke-miterlimit="10" stroke-width="10"/><rect width="109.115" height="30.37" transform="translate(200.007 68.365)" fill="none"/><text transform="translate(200.022 92.824)" fill="#293241" font-size="37" font-family="TitilliumWeb-Black, Titillium Web" font-weight="800"><tspan x="0" y="0">MEGA</tspan></text><path d="M1157.144,330.081,997.568,264.72H317.5V68.943l680.068-2.168" transform="translate(-148.025 -30.96)" fill="none" stroke="#ee6c4d" stroke-linecap="round" stroke-linejoin="round" stroke-miterlimit="10" stroke-width="10"/></g></svg>